<svg xmlns="http://www.w3.org/2000/svg" viewBox="0 0 128 128" role="img" aria-labelledby="title desc">
  <title>Trusted Guards</title>
  <desc>Shield icon for Trusted Guards</desc>
  <defs>
    <linearGradient id="shield" x1="0%" y1="0%" x2="100%" y2="100%">
      <stop offset="0%" stop-color="#0f3b57" />
      <stop offset="100%" stop-color="#1d7ea8" />
    </linearGradient>
  </defs>
  <rect width="128" height="128" rx="28" fill="#071b27" />
  <path d="M64 18 98 31v27c0 24.5-14.8 45.7-34 52-19.2-6.3-34-27.5-34-52V31l34-13Z" fill="url(#shield)" />
  <path d="M64 34c-12.2 0-22 9.8-22 22 0 5.4 1.9 10.3 5.1 14.1L64 94l16.9-23.9A21.8 21.8 0 0 0 86 56c0-12.2-9.8-22-22-22Zm0 30.5c-4.7 0-8.5-3.8-8.5-8.5s3.8-8.5 8.5-8.5 8.5 3.8 8.5 8.5-3.8 8.5-8.5 8.5Z" fill="#f5fbff" opacity="0.96" />
</svg>